<svg xmlns="http://www.w3.org/2000/svg" width="96" height="96" viewBox="0 0 96 96" fill="none">
  <rect width="96" height="96" rx="14" fill="#E2E8F0"/>
  <path d="M48 26C36.954 26 28 34.954 28 46C28 57.046 36.954 66 48 66C59.046 66 68 57.046 68 46C68 34.954 59.046 26 48 26ZM48 31.5C53.799 31.5 58.5 36.201 58.5 42C58.5 47.799 53.799 52.5 48 52.5C42.201 52.5 37.5 47.799 37.5 42C37.5 36.201 42.201 31.5 48 31.5Z" fill="#94A3B8"/>
  <rect x="22" y="68" width="52" height="8" rx="4" fill="#94A3B8"/>
</svg>
